<svg xmlns="http://www.w3.org/2000/svg" xmlns:xlink="http://www.w3.org/1999/xlink" width="357" height="344" viewBox="0 0 357 344"><defs><clipPath id="a"><rect width="325" height="567" transform="translate(-0.203 -0.241)"/></clipPath><clipPath id="c"><rect width="357" height="344"/></clipPath></defs><g id="b" clip-path="url(#c)"><rect width="357" height="344"/><g transform="translate(16.203 -110.759)" clip-path="url(#a)"><g transform="translate(0.843 123.158)"><path d="M322.092,123.844a5.046,5.046,0,0,0-1.995-4.019L170.6,6.412a15.854,15.854,0,0,0-19.1,0L2,119.826a5.045,5.045,0,0,0-2,4.019V139.31H322.092Z" transform="translate(0 -0.453)" fill="#d9d8bf"/><path d="M308.886,255.9V117.679l-73.08-55.44H91.478L18.4,117.679V255.9Z" transform="translate(-2.596 -8.781)" fill="#c4c2a9"/><path d="M299.066,68.894H30.1a5.043,5.043,0,0,0-5.043,5.043V246.078a5.043,5.043,0,0,0,5.043,5.043H299.067a5.043,5.043,0,0,0,5.043-5.043V73.936A5.044,5.044,0,0,0,299.066,68.894Z" transform="translate(-3.534 -9.72)" fill="#6fa682"/><path d="M281.083,120.843a21.878,21.878,0,0,1-21.854-21.854,5.043,5.043,0,0,0-5.043-5.043H82.045A5.043,5.043,0,0,0,77,98.989a21.878,21.878,0,0,1-21.854,21.854,5.043,5.043,0,0,0-5.043,5.043V201.2a5.043,5.043,0,0,0,5.043,5.043A21.878,21.878,0,0,1,77,228.1a5.043,5.043,0,0,0,5.043,5.043H254.186a5.043,5.043,0,0,0,5.043-5.043,21.878,21.878,0,0,1,21.854-21.854,5.043,5.043,0,0,0,5.043-5.043V125.885A5.044,5.044,0,0,0,281.083,120.843Z" transform="translate(-7.069 -13.254)" fill="#88bf9b"/><circle cx="48.415" cy="48.415" r="48.415" transform="translate(112.631 101.873)" fill="#ffc44f"/><path d="M178.719,219.65a53.458,53.458,0,1,1,53.458-53.458A53.518,53.518,0,0,1,178.719,219.65Zm0-96.829a43.371,43.371,0,1,0,43.371,43.371A43.421,43.421,0,0,0,178.719,122.821Z" transform="translate(-17.672 -15.905)" fill="#f7b14d"/><path d="M184.9,163.8a5.716,5.716,0,1,1,0-11.432h10.759a5.043,5.043,0,1,0,0-10.087h-5.716v-5.716a5.043,5.043,0,0,0-10.087,0v6.546a15.8,15.8,0,0,0,5.043,30.774,5.716,5.716,0,0,1,0,11.432H174.145a5.043,5.043,0,1,0,0,10.087h5.716v5.716a5.043,5.043,0,1,0,10.087,0v-6.546A15.8,15.8,0,0,0,184.9,163.8Z" transform="translate(-23.857 -18.556)" fill="#c6803f"/><path d="M319.5,138.423a5.041,5.041,0,0,0-5.111.123L2.384,332.205a5.043,5.043,0,0,0,2.66,9.327H317.05a5.043,5.043,0,0,0,5.043-5.043V142.83A5.045,5.045,0,0,0,319.5,138.423Z" transform="translate(0 -19.439)" fill="#e6e5cf"/><path d="M319.709,332.207,7.7,138.548A5.09,5.09,0,0,0,0,142.833V336.492a5.043,5.043,0,0,0,5.043,5.043H317.05a5.044,5.044,0,0,0,2.659-9.329Z" transform="translate(0 -19.442)" fill="#f2f1df"/><path d="M349.843,142.833a5.09,5.09,0,0,0-7.7-4.285L196.7,228.823l153.145,95.056Z" transform="translate(-27.751 -19.442)" fill="#f2f1df"/><g transform="translate(37.655)"><path d="M270.819,10.759H265.1V5.043a5.043,5.043,0,1,0-10.087,0v5.716H249.3a5.043,5.043,0,1,0,0,10.087h5.716v5.716a5.043,5.043,0,1,0,10.087,0V20.846h5.716a5.044,5.044,0,0,0,0-10.087Z" transform="translate(-72.115)" fill="#ffc44f"/><path d="M70.4,29.548H64.686V23.832a5.043,5.043,0,1,0-10.087,0v5.716H48.883a5.043,5.043,0,0,0,0,10.087H54.6v5.716a5.043,5.043,0,1,0,10.087,0V39.635H70.4a5.043,5.043,0,1,0,0-10.087Z" transform="translate(-43.84 -2.651)" fill="#ffc44f"/><path d="M320.923,29.548h-5.716V23.832a5.043,5.043,0,0,0-10.087,0v5.716H299.4a5.043,5.043,0,0,0,0,10.087h5.716v5.716a5.043,5.043,0,0,0,10.087,0V39.635h5.716a5.043,5.043,0,0,0,0-10.087Z" transform="translate(-79.184 -2.651)" fill="#ffc44f"/><path d="M120.507,10.759h-5.716V5.043a5.043,5.043,0,1,0-10.087,0v5.716H98.988a5.043,5.043,0,1,0,0,10.087H104.7v5.716a5.043,5.043,0,1,0,10.087,0V20.846h5.716a5.044,5.044,0,0,0,0-10.087Z" transform="translate(-50.909)" fill="#ffc44f"/></g></g></g></g></svg>